<svg width="100" height="34" viewBox="0 0 100 34" fill="none" xmlns="http://www.w3.org/2000/svg">
<path d="M12.3154 0.682617H13.2047C16.2919 0.749731 19.3289 1.99135 21.5101 4.18934C20.7047 5.01149 19.8826 5.80008 19.094 6.62223C17.8691 5.51484 16.3926 4.65914 14.7819 4.35712C12.3993 3.85377 9.83222 4.30679 7.83557 5.66585C5.65436 7.09203 4.17785 9.50814 3.85906 12.092C3.50671 14.6424 4.22819 17.327 5.88926 19.3068C7.48322 21.2364 9.91611 22.4444 12.4329 22.5283C14.7819 22.6625 17.2315 21.9411 18.943 20.2968C20.2852 19.139 20.906 17.3773 21.1074 15.6659C18.3221 15.6659 15.5369 15.6827 12.7517 15.6659V12.2095H24.4799C25.0839 15.9176 24.2114 20.0954 21.3926 22.7464C19.5134 24.6256 16.9128 25.733 14.2617 25.9511C11.6946 26.2028 9.04362 25.7162 6.76175 24.4746C4.02685 23.0149 1.84564 20.5484 0.771812 17.6457C-0.234899 14.978 -0.251678 11.9578 0.687919 9.27324C1.54362 6.82357 3.18792 4.65914 5.30201 3.14907C7.33222 1.65577 9.79866 0.833624 12.3154 0.682617Z" fill="#3780FF"/>
<path d="M79.5973 1.55518H83.1879V25.5149C81.9966 25.5149 80.7886 25.5317 79.5973 25.4981C79.6141 17.5283 79.5973 9.54175 79.5973 1.55518V1.55518Z" fill="#38B137"/>
<path d="M32.4665 9.86075C34.6812 9.44129 37.0806 9.91109 38.9094 11.2366C40.5705 12.4111 41.7282 14.2567 42.0806 16.2702C42.5336 18.6024 41.9631 21.1527 40.453 22.9983C38.8255 25.0621 36.1577 26.1695 33.5571 26.0017C31.1745 25.8675 28.8591 24.6762 27.4497 22.7299C25.8557 20.5822 25.4698 17.6292 26.3423 15.1124C27.2148 12.4111 29.6812 10.3473 32.4665 9.86075V9.86075ZM32.9698 13.0487C32.0638 13.2836 31.2248 13.8037 30.6208 14.542C28.9933 16.4883 29.094 19.6594 30.8893 21.4715C31.9128 22.5118 33.4564 22.9983 34.8826 22.7131C36.2081 22.4782 37.3658 21.589 38.0034 20.4145C39.1108 18.4178 38.792 15.6661 37.0973 14.1057C36.0067 13.099 34.4128 12.6795 32.9698 13.0487Z" fill="#FA3913"/>
<path d="M50.2517 9.86052C52.7852 9.37395 55.5537 10.0786 57.4497 11.8572C60.5369 14.6256 60.8725 19.8102 58.2383 22.9981C56.6443 25.0115 54.0604 26.1189 51.5101 26.0014C49.0772 25.9343 46.6779 24.7263 45.2349 22.7296C43.6074 20.5316 43.2551 17.5115 44.1779 14.9444C45.1007 12.327 47.5168 10.3303 50.2517 9.86052V9.86052ZM50.755 13.0484C49.849 13.2833 49.0101 13.8035 48.4061 14.5249C46.7953 16.4377 46.8624 19.5585 48.5906 21.3874C49.6141 22.478 51.2081 23.0149 52.6846 22.7129C53.9933 22.4612 55.1678 21.5887 55.8054 20.4142C56.896 18.4008 56.5772 15.6491 54.8658 14.0887C53.7752 13.082 52.1812 12.6793 50.755 13.0484Z" fill="#FCBD06"/>
<path d="M65.3355 10.8337C67.265 9.62566 69.8322 9.29009 71.9127 10.3304C72.5671 10.6156 73.104 11.1022 73.6241 11.5887C73.6409 11.1357 73.6241 10.6659 73.6409 10.1961C74.7651 10.2129 75.8892 10.1961 77.0302 10.2129V25.0115C77.0134 27.2431 76.4429 29.6088 74.8322 31.2364C73.0704 33.0317 70.3691 33.5854 67.9362 33.2162C65.3355 32.8303 63.0704 30.9344 62.0637 28.535C63.0704 28.0484 64.1275 27.6625 65.1677 27.2095C65.755 28.5854 66.9463 29.7599 68.4395 30.0283C69.9328 30.2968 71.661 29.9276 72.6342 28.686C73.6744 27.4109 73.6744 25.6659 73.6241 24.1055C72.8523 24.8605 71.963 25.5317 70.8892 25.7834C68.557 26.4377 65.9899 25.6323 64.1946 24.0552C62.3825 22.478 61.3087 20.0451 61.4093 17.629C61.4597 14.8941 63.0033 12.2599 65.3355 10.8337V10.8337ZM68.8087 12.9814C67.7852 13.1491 66.8288 13.7196 66.1744 14.5082C64.5973 16.3874 64.5973 19.3907 66.1912 21.2364C67.0973 22.327 68.557 22.931 69.9664 22.78C71.2919 22.6458 72.5167 21.8068 73.1711 20.6491C74.2785 18.686 74.0939 16.0183 72.6006 14.3069C71.6778 13.2498 70.2013 12.7297 68.8087 12.9814V12.9814Z" fill="#3780FF"/>
<path d="M87.5 11.6896C89.5135 9.81044 92.6175 9.17286 95.2014 10.1628C97.6511 11.0856 99.2115 13.4178 100 15.8172C96.3591 17.3272 92.7349 18.8205 89.094 20.3306C89.5973 21.287 90.3692 22.1594 91.4094 22.5118C92.8692 23.0319 94.6141 22.8474 95.839 21.8742C96.3256 21.5051 96.7115 21.0185 97.0806 20.5487C98.0034 21.1695 98.9262 21.7735 99.849 22.3943C98.5403 24.3574 96.3423 25.7333 93.9765 25.9514C91.3591 26.2702 88.5739 25.2635 86.8792 23.2165C84.094 19.995 84.3624 14.5923 87.5 11.6896V11.6896ZM89.2953 14.7937C88.7249 15.6158 88.49 16.6225 88.5067 17.6125C90.9396 16.6057 93.3725 15.599 95.8054 14.5755C95.4027 13.6359 94.4296 13.0655 93.4396 12.9145C91.8457 12.6292 90.1846 13.4849 89.2953 14.7937V14.7937Z" fill="#FA3913"/>
</svg>
