<svg width="100" height="22" viewBox="0 0 100 22" fill="none" xmlns="http://www.w3.org/2000/svg">
<path d="M100 9.98343V8.22477H97.8161V5.49072L97.7425 5.51336L95.6913 6.14098L95.6508 6.15326V8.22487H92.4132V7.0708C92.4132 6.53344 92.5333 6.12221 92.7702 5.84797C93.0053 5.57701 93.3417 5.43926 93.7707 5.43926C94.0791 5.43926 94.3984 5.5119 94.7198 5.65517L94.8003 5.69116V3.83905L94.7624 3.82512C94.4626 3.71735 94.0549 3.66309 93.5495 3.66309C92.9125 3.66309 92.3337 3.80171 91.8289 4.07644C91.3239 4.35156 90.9266 4.7443 90.6483 5.24366C90.3709 5.74243 90.2302 6.31849 90.2302 6.95598V8.22477H88.7095V9.98343H90.2302V17.3923H92.4132V9.98343H95.6508V14.6917C95.6508 16.6307 96.5655 17.6134 98.3693 17.6134C98.6657 17.6134 98.9777 17.5787 99.2962 17.5107C99.6205 17.4408 99.8413 17.3711 99.9713 17.2966L100 17.2795V15.5046L99.9113 15.5634C99.7928 15.6423 99.6452 15.7068 99.4723 15.7548C99.2985 15.8036 99.1534 15.8281 99.041 15.8281C98.6185 15.8281 98.3058 15.7143 98.1119 15.4895C97.9157 15.2628 97.8162 14.8663 97.8162 14.3116V9.98343H100ZM83.8344 15.8284C83.042 15.8284 82.4173 15.5657 81.9771 15.0481C81.5341 14.528 81.3097 13.7864 81.3097 12.8442C81.3097 11.8721 81.5341 11.1113 81.9773 10.5819C82.4178 10.0561 83.0365 9.78918 83.8166 9.78918C84.5736 9.78918 85.1761 10.0441 85.6078 10.5472C86.0415 11.0529 86.2617 11.8077 86.2617 12.7911C86.2617 13.7866 86.0547 14.5513 85.6465 15.0628C85.241 15.5705 84.6314 15.8284 83.8344 15.8284V15.8284ZM83.9314 8.00392C82.4197 8.00392 81.2191 8.44687 80.363 9.3205C79.5074 10.1942 79.0737 11.4033 79.0737 12.9145C79.0737 14.3499 79.4971 15.5044 80.3323 16.3456C81.1675 17.187 82.3041 17.6132 83.7104 17.6132C85.1757 17.6132 86.3525 17.164 87.2082 16.2783C88.0639 15.3936 88.4973 14.1959 88.4973 12.72C88.4973 11.2622 88.0906 10.099 87.288 9.26352C86.485 8.42762 85.3555 8.00392 83.9314 8.00392V8.00392ZM75.5539 8.00392C74.5256 8.00392 73.675 8.26695 73.0253 8.78555C72.3715 9.30724 72.0399 9.99146 72.0399 10.8194C72.0399 11.2498 72.1115 11.6321 72.2524 11.9564C72.3941 12.2817 72.6134 12.5681 72.9047 12.8085C73.1939 13.047 73.6402 13.2967 74.2317 13.5509C74.7289 13.7555 75.0997 13.9285 75.3352 14.0649C75.5655 14.1986 75.7288 14.333 75.8211 14.4639C75.9108 14.5919 75.9563 14.7672 75.9563 14.9835C75.9563 15.5994 75.495 15.8991 74.546 15.8991C74.1939 15.8991 73.7924 15.8256 73.3525 15.6807C72.9158 15.538 72.5036 15.329 72.1304 15.061L72.0397 14.996V17.0978L72.073 17.1133C72.3819 17.2558 72.7713 17.3761 73.2304 17.4707C73.6885 17.5654 74.1048 17.6136 74.4663 17.6136C75.5822 17.6136 76.4808 17.3493 77.1364 16.8276C77.7963 16.3023 78.1307 15.602 78.1307 14.7454C78.1307 14.1274 77.9507 13.5975 77.5958 13.1701C77.2434 12.7462 76.6318 12.357 75.7787 12.013C75.099 11.7403 74.6636 11.5138 74.4839 11.34C74.3108 11.172 74.2229 10.9345 74.2229 10.6338C74.2229 10.3672 74.3314 10.1536 74.5542 9.98062C74.7787 9.80679 75.0913 9.71837 75.4832 9.71837C75.847 9.71837 76.2191 9.77583 76.5892 9.88843C76.959 10.001 77.2839 10.1518 77.555 10.3363L77.6442 10.3973V8.40354L77.61 8.38883C77.3598 8.28155 77.0299 8.18975 76.6293 8.11526C76.2304 8.04126 75.8686 8.00392 75.5539 8.00392V8.00392ZM66.3489 15.8284C65.5567 15.8284 64.9318 15.5657 64.4917 15.0481C64.0486 14.528 63.8246 13.7866 63.8246 12.8442C63.8246 11.8721 64.0489 11.1113 64.4921 10.5819C64.9323 10.0561 65.5509 9.78918 66.3314 9.78918C67.088 9.78918 67.6906 10.0441 68.1223 10.5472C68.5562 11.0529 68.7763 11.8077 68.7763 12.7911C68.7763 13.7866 68.5692 14.5513 68.1609 15.0628C67.7555 15.5705 67.1462 15.8284 66.3489 15.8284V15.8284ZM66.4462 8.00392C64.9341 8.00392 63.7333 8.44687 62.8777 9.3205C62.0222 10.1942 61.5881 11.4033 61.5881 12.9145C61.5881 14.3505 62.0118 15.5044 62.8471 16.3456C63.6823 17.187 64.8188 17.6132 66.2251 17.6132C67.6902 17.6132 68.8673 17.164 69.723 16.2783C70.5784 15.3936 71.0121 14.1959 71.0121 12.72C71.0121 11.2622 70.6052 10.099 69.8024 9.26352C68.9992 8.42762 67.87 8.00392 66.4462 8.00392V8.00392ZM58.2744 9.8124V8.22477H56.1179V17.3921H58.2744V12.7027C58.2744 11.9053 58.4552 11.2502 58.8119 10.7554C59.1641 10.2665 59.6335 10.0187 60.2066 10.0187C60.4008 10.0187 60.6189 10.0508 60.855 10.1141C61.0887 10.1771 61.258 10.2455 61.3578 10.3175L61.4485 10.3831V8.2091L61.4135 8.1941C61.2127 8.10878 60.9286 8.06573 60.5691 8.06573C60.0272 8.06573 59.5423 8.23986 59.1269 8.58269C58.7623 8.88402 58.4988 9.29718 58.2973 9.8124H58.2744ZM52.2562 8.00392C51.2669 8.00392 50.3844 8.21606 49.6339 8.63425C48.8817 9.05341 48.3001 9.65182 47.9043 10.4127C47.5103 11.1718 47.3103 12.0585 47.3103 13.0473C47.3103 13.9135 47.5042 14.7084 47.8876 15.409C48.2712 16.1107 48.814 16.6597 49.5012 17.0404C50.1875 17.4207 50.9806 17.6135 51.8588 17.6135C52.8836 17.6135 53.7586 17.4086 54.4601 17.0045L54.4884 16.9883V15.0126L54.3978 15.0788C54.08 15.3103 53.7249 15.4951 53.3428 15.6282C52.9617 15.7612 52.6142 15.8284 52.3095 15.8284C51.4633 15.8284 50.784 15.5636 50.291 15.0417C49.7969 14.519 49.5463 13.7851 49.5463 12.8615C49.5463 11.9322 49.8076 11.1794 50.3225 10.6239C50.8359 10.0701 51.5164 9.78918 52.3451 9.78918C53.0538 9.78918 53.7445 10.0292 54.398 10.5032L54.4884 10.5689V8.48721L54.4592 8.47077C54.2133 8.33311 53.8779 8.21945 53.4616 8.13326C53.047 8.04726 52.6415 8.00392 52.2562 8.00392V8.00392ZM45.8251 8.22487H43.6687V17.3921H45.8251V8.22487V8.22487ZM44.7689 4.31954C44.414 4.31954 44.1045 4.44036 43.8501 4.67978C43.5948 4.91988 43.4652 5.22218 43.4652 5.57894C43.4652 5.93009 43.5932 6.22688 43.8462 6.46059C44.0975 6.69363 44.408 6.81175 44.769 6.81175C45.13 6.81175 45.4416 6.69363 45.696 6.46098C45.9519 6.22688 46.0817 5.93019 46.0817 5.57894C46.0817 5.23466 45.9554 4.93545 45.7065 4.68945C45.4578 4.44394 45.1422 4.31954 44.7689 4.31954ZM39.3885 7.54849V17.3921H41.5892V4.60017H38.5433L34.6718 14.1017L30.9147 4.60017H27.7448V17.3921H29.8129V7.54752H29.8839L33.8513 17.3921H35.412L39.3175 7.54849H39.3885V7.54849Z" fill="#706D6E"/>
<path d="M10.1445 10.4702H0V0.325684H10.1445V10.4702Z" fill="#F1511B"/>
<path d="M21.3451 10.4702H11.2008V0.325684H21.3451V10.4702Z" fill="#80CC28"/>
<path d="M10.1442 21.6746H0V11.5303H10.1442V21.6746Z" fill="#00ADEF"/>
<path d="M21.3451 21.6746H11.2008V11.5303H21.3451V21.6746Z" fill="#FBBC09"/>
</svg>
