<svg width="100" height="26" viewBox="0 0 100 26" fill="none" xmlns="http://www.w3.org/2000/svg">
<path fill-rule="evenodd" clip-rule="evenodd" d="M31.9919 20.2841L33.2399 17.3841C34.5879 18.3921 36.3839 18.9161 38.1559 18.9161C39.4639 18.9161 40.2919 18.4121 40.2919 17.6481C40.2719 15.5121 32.4559 17.1841 32.3959 11.8281C32.3759 9.10813 34.7919 7.01213 38.2159 7.01213C40.2519 7.01213 42.2839 7.51613 43.7359 8.66413L42.5679 11.6241C41.2399 10.7761 39.5879 10.1721 38.0159 10.1721C36.9479 10.1721 36.2439 10.6761 36.2439 11.3201C36.2639 13.4161 44.1399 12.2681 44.2199 17.3841C44.2199 20.1641 41.8639 22.1201 38.4799 22.1201C35.9999 22.1161 33.7239 21.5321 31.9919 20.2841V20.2841ZM79.9159 16.3361C79.2919 17.4241 78.1239 18.1681 76.7719 18.1681C74.7759 18.1681 73.1679 16.5561 73.1679 14.5641C73.1679 12.5721 74.7799 10.9601 76.7719 10.9601C78.1199 10.9601 79.2919 11.7041 79.9159 12.7921L83.3599 10.8801C82.0719 8.58413 79.5919 7.01213 76.7719 7.01213C72.5999 7.01213 69.2159 10.3961 69.2159 14.5681C69.2159 18.7401 72.5999 22.1241 76.7719 22.1241C79.6119 22.1241 82.0719 20.5721 83.3599 18.2561L79.9159 16.3361ZM45.9519 0.744141H50.2639V21.8361H45.9519V0.744141ZM85.0519 0.744141V21.8361H89.3639V15.5081L94.4799 21.8361H99.9999L93.4919 14.3201L99.5159 7.30813H94.2359L89.3599 13.1281V0.744141H85.0519Z" fill="black"/>
<path d="M63.076 16.3763C62.452 17.4043 61.164 18.1683 59.712 18.1683C57.716 18.1683 56.108 16.5563 56.108 14.5643C56.108 12.5723 57.72 10.9603 59.712 10.9603C61.164 10.9603 62.452 11.7643 63.076 12.8123V16.3763ZM63.076 7.3123V9.0243C62.372 7.8363 60.62 7.0083 58.784 7.0083C54.996 7.0083 52.016 10.3523 52.016 14.5443C52.016 18.7363 54.996 22.1203 58.784 22.1203C60.616 22.1203 62.368 21.2963 63.076 20.1043V21.8163H67.388V7.3123H63.076Z" fill="black"/>
<path fill-rule="evenodd" clip-rule="evenodd" d="M5.34002 16.3563C5.34002 17.8283 4.15202 19.0163 2.68002 19.0163C1.20802 19.0163 0.0200195 17.8243 0.0200195 16.3563C0.0200195 14.8883 1.20802 13.6963 2.68002 13.6963H5.34002V16.3563ZM6.66802 16.3563C6.66802 14.8843 7.85602 13.6963 9.32802 13.6963C10.8 13.6963 11.988 14.8843 11.988 16.3563V23.0043C11.988 24.4763 10.8 25.6643 9.32802 25.6643C7.85602 25.6643 6.66802 24.4763 6.66802 23.0043V16.3563Z" fill="#E01E5A"/>
<path fill-rule="evenodd" clip-rule="evenodd" d="M9.328 5.68037C7.856 5.68037 6.668 4.49236 6.668 3.02036C6.668 1.54835 7.856 0.360352 9.328 0.360352C10.8 0.360352 11.988 1.54835 11.988 3.02036V5.68037H9.328ZM9.328 7.02837C10.8 7.02837 11.988 8.21637 11.988 9.68838C11.988 11.1604 10.8 12.3484 9.328 12.3484H2.66C1.188 12.3484 0 11.1564 0 9.68838C0 8.22037 1.188 7.02837 2.66 7.02837H9.328Z" fill="#36C5F0"/>
<path fill-rule="evenodd" clip-rule="evenodd" d="M19.984 9.68838C19.984 8.21637 21.172 7.02837 22.644 7.02837C24.116 7.02837 25.304 8.21637 25.304 9.68838C25.304 11.1604 24.116 12.3484 22.644 12.3484H19.984V9.68838ZM18.656 9.68838C18.656 11.1604 17.4681 12.3484 15.9961 12.3484C14.5241 12.3484 13.3361 11.1604 13.3361 9.68838V3.02036C13.3361 1.54835 14.5241 0.360352 15.9961 0.360352C17.4681 0.360352 18.656 1.54835 18.656 3.02036V9.68838Z" fill="#2EB67D"/>
<path fill-rule="evenodd" clip-rule="evenodd" d="M15.9961 20.3443C17.468 20.3443 18.656 21.5323 18.656 23.0043C18.656 24.4763 17.468 25.6643 15.9961 25.6643C14.5241 25.6643 13.3361 24.4763 13.3361 23.0043V20.3443H15.9961ZM15.9961 19.0163C14.5241 19.0163 13.3361 17.8283 13.3361 16.3563C13.3361 14.8843 14.5241 13.6963 15.9961 13.6963H22.664C24.136 13.6963 25.324 14.8843 25.324 16.3563C25.324 17.8283 24.136 19.0163 22.664 19.0163H15.9961Z" fill="#ECB22E"/>
</svg>
