<svg width="28" height="32" viewBox="0 0 28 32" fill="none" xmlns="http://www.w3.org/2000/svg">
<path d="M17.8024 9.76833L1.01889 0.123178C0.807995 4.82537e-05 0.54267 0.00688879 0.338574 0.130018C0.127674 0.253148 -0.00158691 0.472045 -0.00158691 0.718304C-0.00158691 0.718304 0.0052163 1.60757 0.0120195 3.07145L12.2374 15.3639L17.8024 9.76833Z" fill="url(#paint0_linear_4576_17457)"/>
<path d="M0.0119629 3.07129C0.0323725 8.35219 0.0936013 21.1714 0.120814 27.5536L12.2441 15.3637L0.0119629 3.07129Z" fill="url(#paint1_linear_4576_17457)"/>
<path d="M27.4086 15.2889L17.8024 9.76855L12.2306 15.3641L18.5168 21.6848L27.4154 16.4723C27.6263 16.3492 27.7555 16.1234 27.7555 15.884C27.7555 15.6377 27.6195 15.412 27.4086 15.2889Z" fill="url(#paint2_linear_4576_17457)"/>
<path d="M0.114136 27.5536C0.127742 29.8315 0.134545 31.2885 0.134545 31.2885C0.134545 31.5348 0.263806 31.7605 0.474705 31.8768C0.685604 31.9999 0.944126 31.9999 1.15503 31.8768L18.5236 21.6913L12.2374 15.3706L0.114136 27.5536Z" fill="url(#paint3_linear_4576_17457)"/>
<defs>
<linearGradient id="paint0_linear_4576_17457" x1="-0.00158691" y1="7.70208" x2="17.8055" y2="7.70208" gradientUnits="userSpaceOnUse">
<stop stop-color="#63BE6B"/>
<stop offset="0.506" stop-color="#5BBC6A"/>
<stop offset="1" stop-color="#4AB96A"/>
</linearGradient>
<linearGradient id="paint1_linear_4576_17457" x1="0.00869735" y1="15.3154" x2="12.237" y2="15.3154" gradientUnits="userSpaceOnUse">
<stop stop-color="#3EC6F2"/>
<stop offset="1" stop-color="#45AFE3"/>
</linearGradient>
<linearGradient id="paint2_linear_4576_17457" x1="12.2371" y1="15.731" x2="27.7539" y2="15.731" gradientUnits="userSpaceOnUse">
<stop stop-color="#FAA51A"/>
<stop offset="0.387" stop-color="#FAB716"/>
<stop offset="0.741" stop-color="#FAC412"/>
<stop offset="1" stop-color="#FAC80F"/>
</linearGradient>
<linearGradient id="paint3_linear_4576_17457" x1="0.117129" y1="23.6696" x2="18.5233" y2="23.6696" gradientUnits="userSpaceOnUse">
<stop stop-color="#EC3B50"/>
<stop offset="1" stop-color="#E7515B"/>
</linearGradient>
</defs>
</svg>
